<svg width="40" height="40" viewBox="0 0 40 40" fill="none" xmlns="http://www.w3.org/2000/svg">
<g clip-path="url(#clip0_347_3582)">
<path d="M0 20C0 8.95431 8.95431 0 20 0V0C31.0457 0 40 8.95431 40 20V20C40 31.0457 31.0457 40 20 40V40C8.95431 40 0 31.0457 0 20V20Z" fill="#CCCCCC" fill-opacity="0.6"/>
<path d="M27.4072 19.0742H15.7535L22.235 12.5927L20.9257 11.2835L12.2091 20.0001L20.9257 28.7168L22.235 27.4075L15.7535 20.9261H27.4072V19.0742Z" fill="white"/>
</g>
<defs>
<clipPath id="clip0_347_3582">
<path d="M0 20C0 8.95431 8.95431 0 20 0V0C31.0457 0 40 8.95431 40 20V20C40 31.0457 31.0457 40 20 40V40C8.95431 40 0 31.0457 0 20V20Z" fill="white"/>
</clipPath>
</defs>
</svg>
