<svg width="40" height="40" viewBox="0 0 40 40" fill="none" xmlns="http://www.w3.org/2000/svg">
<g clip-path="url(#clip0_347_3586)">
<path d="M0 20C0 8.95431 8.95431 0 20 0V0C31.0457 0 40 8.95431 40 20V20C40 31.0457 31.0457 40 20 40V40C8.95431 40 0 31.0457 0 20V20Z" fill="#CCCCCC" fill-opacity="0.6"/>
<path d="M12.5928 20.9258H24.2465L17.765 27.4073L19.0743 28.7165L27.7909 19.9999L19.0743 11.2832L17.765 12.5925L24.2465 19.0739H12.5928V20.9258Z" fill="white"/>
</g>
<defs>
<clipPath id="clip0_347_3586">
<path d="M0 20C0 8.95431 8.95431 0 20 0V0C31.0457 0 40 8.95431 40 20V20C40 31.0457 31.0457 40 20 40V40C8.95431 40 0 31.0457 0 20V20Z" fill="white"/>
</clipPath>
</defs>
</svg>
