<svg xmlns="http://www.w3.org/2000/svg" xmlns:xlink="http://www.w3.org/1999/xlink" viewBox="0 0 24 24" overflow="visible"><g><path d="M 12 0 C 5.373 0 0 5.373 0 12 C 0 18.627 5.373 24 12 24 C 18.627 24 24 18.627 24 12 C 24 5.373 18.627 0 12 0 Z M 9.571 12.798 L 9.568 12.838 C 9.528 13.385 9.399 14.014 9.222 14.649 L 9.865 14.164 L 11.767 16.326 C 12.013 17.21 11.679 18.016 11.679 18.016 L 9.115 15.019 L 9.115 15.016 C 8.877 15.793 8.577 16.551 8.223 17.285 C 7.618 18.509 6.745 18.75 5.826 18.83 C 4.904 18.911 5.202 18.688 5.202 18.688 C 7.023 17.202 7.291 16.337 7.795 15.391 C 8.113 14.794 8.341 13.669 8.472 12.798 L 5.36 12.798 C 5.36 12.798 5.488 11.963 5.874 11.681 L 8.596 11.681 C 8.612 11.271 8.561 8.928 8.542 8.162 L 7.219 8.162 C 6.972 9.367 6.121 9.68 5.93 9.771 C 5.743 9.863 5.298 9.962 5.365 9.771 C 5.435 9.581 6.088 8.534 6.522 6.806 C 6.959 5.076 8.234 5.146 8.234 5.146 C 7.891 5.748 7.634 7.117 7.634 7.117 L 11.912 7.117 C 12.182 7.117 12.196 8.162 12.196 8.162 L 9.763 8.162 C 9.745 8.77 9.688 10.406 9.629 11.681 L 12.188 11.681 C 12.188 11.681 12.514 12.094 12.514 12.798 Z M 18.852 17.271 L 16.505 17.271 L 14.644 18.52 L 14.204 17.271 L 13.13 17.271 L 13.13 6.897 L 18.852 6.897 Z M 9.22 14.652" fill="rgb(138, 146, 156)"></path><path d="M 14.999 17.146 L 16.521 16.126 L 17.742 16.126 L 17.74 16.126 L 17.74 8.023 L 14.263 8.023 L 14.263 16.126 L 14.641 16.126 Z" fill="rgb(138, 146, 156)"></path></g></svg>